PathFileType	3	(X/Y/Z)	D:\minhoCalibration\240510\subject1_KPNP\preferred\preferred19.trc
DataRate	CameraRate	NumFrames	NumMarkers	Units	OrigDataRate	OrigDataStartFrame	OrigNumFrames
200.0	200.0	18	10	mm	200.0	379	186	
Frame#	Time	Left_Ankle_Outer1			Left_Ankle_Inner1			Left_Knee_Outer1			Left_Knee_Inner1			Left_Wrist1			Right_Wrist1			Right_Knee_Inner1			Right_Knee_Outer1			Right_Ankle_Inner1			Right_Ankle_Outer1			
		X1	Y1	Z1	X2	Y2	Z2	X3	Y3	Z3	X4	Y4	Z4	X5	Y5	Z5	X6	Y6	Z6	X7	Y7	Z7	X8	Y8	Z8	X9	Y9	Z9	X10	Y10	Z10	
379	1.885	-542.38385	111.13763	-601.2644	-593.35858	121.26077	-575.38428	-433.19919	525.20172	-421.61417	-543.34802	504.97824	-425.19476	-389.75174	988.91461	-521.5661	-738.40637	1023.6181	-560.63446	-702.27271	568.27118	-407.87265	-805.92255	588.29108	-454.12048	-772.90924	135.9541	-473.20108	-881.3288	127.63608	-465.44614
380	1.89	-541.98132	110.97638	-601.81805	-592.84912	121.08798	-576.01715	-434.66922	526.25476	-423.80463	-545.00726	506.09262	-427.99838	-390.64328	990.15497	-520.81873	-738.3418	1025.5676	-564.32001	-704.37885	570.59552	-409.43683	-807.23193	590.43774	-457.13406	-772.47528	138.04288	-480.37598	-881.35602	129.43829	-475.16495
381	1.895	-541.60858	110.82494	-602.47125	-592.58008	120.8927	-576.79358	-436.08698	527.21509	-426.11771	-546.34271	506.95676	-431.54825	-391.16165	991.3457	-520.32361	-738.41565	1026.8572	-568.09222	-706.76288	572.74634	-410.81134	-808.52936	592.5495	-460.3212	-772.37024	140.03514	-487.58548	-881.19928	131.29128	-485.18658
382	1.9	-541.513	110.58051	-603.02246	-592.45435	120.63678	-577.50922	-437.39633	528.0578	-428.58691	-547.46619	507.50433	-435.65317	-392.30539	992.42725	-519.40466	-738.4552	1028.4398	-571.57562	-709.36304	574.68829	-412.01132	-809.8645	594.59015	-463.77094	-772.09802	142.04686	-494.81329	-880.87317	133.29298	-495.19397
383	1.905	-541.40088	110.20599	-603.61206	-592.54694	120.36689	-578.25665	-438.76096	528.78046	-431.15411	-548.79224	508.21872	-439.02237	-392.90219	993.47479	-518.91382	-738.39307	1029.9182	-574.93658	-712.06696	576.40295	-413.14694	-811.16992	596.49957	-467.35818	-771.81866	144.00468	-502.20602	-880.49933	135.21089	-505.53931
384	1.91	-541.66333	109.82107	-604.17224	-592.77332	119.91344	-578.81787	-440.10498	529.41113	-433.82828	-550.01959	508.87842	-442.48328	-393.47168	994.38959	-518.48224	-738.29688	1031.3085	-578.26349	-714.89459	577.86145	-414.40833	-812.50287	598.30981	-470.93344	-771.36432	146.1095	-509.6727	-879.88947	137.2029	-515.91559
385	1.915	-541.979	109.42328	-604.75787	-593.04218	119.50069	-579.3136	-441.35199	529.92206	-436.65683	-551.14954	509.36972	-445.86203	-394.03699	995.21338	-517.97339	-738.14502	1032.6508	-581.41785	-717.69653	579.23175	-415.68469	-813.78143	600.00208	-474.44592	-770.82953	148.20499	-517.28101	-879.27045	139.32327	-526.28198
386	1.92	-542.43311	108.95741	-605.27771	-593.43433	119.03913	-579.7832	-442.50906	530.35803	-439.58929	-552.27014	509.76437	-449.30682	-394.5784	996.01392	-517.51886	-737.84998	1033.8044	-584.60107	-720.35645	580.39307	-417.1463	-815.09637	601.59784	-477.83102	-770.26746	150.25883	-524.98163	-878.53326	141.50783	-537.05829
387	1.925	-543.02588	108.42464	-605.78412	-593.98773	118.55769	-580.32159	-443.56421	530.70544	-442.52518	-553.32721	510.18881	-452.4874	-395.22531	996.7121	-517.04523	-737.58325	1034.9526	-587.73169	-722.85687	581.50488	-418.7272	-816.33521	603.1308	-481.08762	-769.45349	152.36331	-532.81396	-877.74664	143.867	-547.71576
388	1.93	-543.62848	107.81431	-606.27551	-594.51166	118.08767	-580.72296	-444.52509	530.99268	-445.48688	-554.24426	510.49316	-455.77914	-395.89792	997.32355	-516.6012	-737.1496	1035.6387	-591.16107	-725.1665	582.46814	-420.59235	-817.6095	604.56952	-484.15622	-768.73962	154.43262	-540.78674	-876.62646	146.0838	-558.09583
389	1.935	-544.18372	107.36436	-606.74487	-594.98627	117.56409	-581.07806	-445.50461	531.17755	-448.43225	-555.16345	510.72754	-458.91348	-396.61829	997.87164	-516.19684	-737.05798	1036.6189	-593.81085	-727.22473	583.31531	-422.69629	-818.8407	605.91125	-487.08582	-767.73572	156.5733	-548.89935	-875.45746	148.29588	-568.5141
390	1.94	-544.83435	106.71967	-607.25098	-595.45996	117.05183	-581.40924	-446.27917	531.26178	-451.40909	-556.0528	510.86038	-461.94376	-397.3501	998.35333	-515.77979	-736.74719	1037.1887	-596.77148	-729.21521	584.08862	-424.83936	-820.05951	607.11462	-489.87924	-766.73932	158.67833	-557.03503	-874.23566	150.5932	-578.87427
391	1.945	-545.33685	106.14355	-607.63458	-596.03296	116.49092	-581.73767	-447.14423	531.36523	-454.18674	-556.85724	510.97913	-464.72192	-398.12009	998.75275	-515.32245	-736.56439	1037.7932	-599.65576	-731.07428	584.7002	-427.19437	-821.27985	608.21692	-492.62778	-765.88062	160.59958	-565.45697	-872.91583	152.83615	-589.37732
392	1.95	-545.90436	105.66349	-608.0929	-596.57428	115.96272	-582.00476	-447.81149	531.32898	-456.88815	-557.50238	511.00784	-467.55933	-398.99591	999.07599	-514.83002	-736.3924	1038.214	-602.5459	-732.64862	584.88391	-429.75327	-822.40942	609.19025	-495.22336	-764.94672	162.59016	-574.05127	-871.46136	155.03433	-599.76349
393	1.955	-546.46216	105.15877	-608.48456	-596.9776	115.47416	-582.27496	-448.46106	531.31335	-459.46927	-558.12799	511.13199	-470.10147	-399.76831	999.3894	-514.45557	-736.22015	1038.5215	-605.36792	-734.39441	585.39313	-432.05252	-823.53772	610.07422	-497.82599	-763.84979	164.73485	-582.89996	-870.047	157.28777	-610.02014
394	1.96	-546.89661	104.57348	-608.86151	-597.33063	115.08404	-582.56952	-448.98346	531.23218	-461.93689	-558.67822	511.14856	-472.62845	-400.54956	999.62323	-514.05646	-736.05157	1038.7495	-608.17517	-736.10114	585.70972	-434.56442	-824.60278	610.86139	-500.41806	-762.62	166.71504	-591.39752	-868.6673	159.51588	-620.20056
395	1.965	-547.22449	104.05394	-609.2644	-597.65802	114.61404	-582.95209	-449.5769	531.16504	-464.2225	-559.18408	511.11322	-474.98996	-401.38419	999.81323	-513.65399	-735.9444	1038.8984	-610.84564	-737.7807	585.8432	-437.29129	-825.58441	611.51642	-503.0405	-761.39606	168.68796	-600.21057	-867.26117	161.61478	-630.18665
396	1.97	-547.38672	103.62394	-609.62036	-597.81305	114.12027	-583.27832	-450.02478	531.14496	-466.34665	-559.65723	511.14642	-477.08148	-402.18594	999.9693	-513.28284	-735.84875	1038.9712	-613.41235	-739.39575	585.75348	-440.17548	-826.66882	612.03094	-505.86575	-760.12573	170.61203	-609.22675	-865.62994	163.77249	-640.23499
